<?xml version="1.0" encoding="UTF-8"?>
<svg xmlns="http://www.w3.org/2000/svg" xmlns:xlink="http://www.w3.org/1999/xlink" width="0" height="0">
<symbol id="client1" width="168" height="88" viewBox="0 0 168 88" ><rect x="0.5" y="0.5" width="167" height="87" rx="3.5"/><path fill-rule="evenodd" clip-rule="evenodd" d="M70 23L77.0078 29.6764L64 29.6687V62.0609H98V49.6758L105 56.3448V23H70ZM97.6924 48.8922L77.8226 29.962H97.6924V48.8922ZM91.5231 57.3227H69.3801V35.5373H70.9453V55.8475H91.5231V57.3227ZM73.7959 68.0611L72.9707 66.3643H72.2896L73.4858 68.6104V69.919H74.1035V68.6104L75.2998 66.3643H74.6211L73.7959 68.0611ZM76.8379 66.3643H76.9844L78.3271 69.919H77.6826L77.395 69.0865H76.0189L75.7319 69.919H75.0898L76.4277 66.3643H76.5718H76.8379ZM76.1864 68.6007H77.2271L76.7062 67.0927L76.1864 68.6007ZM80.4821 68.0117C80.4553 67.9776 80.4295 67.9445 80.4048 67.9122C80.3136 67.7917 80.2428 67.6754 80.1924 67.5631C80.1419 67.4491 80.1167 67.3319 80.1167 67.2115C80.1167 67.026 80.1549 66.8665 80.2314 66.733C80.3079 66.5995 80.4162 66.497 80.5562 66.4254C80.6961 66.3521 80.8597 66.3155 81.0469 66.3155C81.2275 66.3155 81.383 66.3521 81.5132 66.4254C81.645 66.497 81.7459 66.5922 81.8159 66.711C81.8875 66.8298 81.9233 66.96 81.9233 67.1016C81.9233 67.2139 81.903 67.3165 81.8623 67.4093C81.8216 67.502 81.7655 67.5867 81.6938 67.6632C81.6222 67.7397 81.5392 67.8121 81.4448 67.8805L81.1979 68.0602L81.9018 68.8909C81.925 68.8453 81.946 68.7973 81.9648 68.7472C82.0251 68.5909 82.0552 68.4176 82.0552 68.2271H82.563C82.563 68.3997 82.5459 68.5632 82.5117 68.7179C82.4792 68.8725 82.4263 69.0157 82.353 69.1475C82.3233 69.2022 82.2897 69.2545 82.2522 69.3044L82.7729 69.919H82.0918L81.8852 69.676C81.7734 69.7609 81.6518 69.8272 81.5205 69.8751C81.348 69.9369 81.1641 69.9679 80.9688 69.9679C80.7327 69.9679 80.5285 69.9247 80.356 69.8385C80.1834 69.7522 80.05 69.6334 79.9556 69.482C79.8628 69.3306 79.8164 69.1573 79.8164 68.962C79.8164 68.8171 79.8465 68.6902 79.9067 68.5811C79.967 68.4705 80.0492 68.3679 80.1533 68.2735C80.2495 68.1862 80.3591 68.099 80.4821 68.0117ZM80.7738 68.3689L80.7002 68.4224C80.6139 68.4924 80.5496 68.56 80.5073 68.6251C80.4666 68.6886 80.4398 68.7472 80.4268 68.8009C80.4137 68.8546 80.4072 68.9018 80.4072 68.9425C80.4072 69.0466 80.4292 69.141 80.4731 69.2257C80.5187 69.3103 80.5846 69.3778 80.6709 69.4283C80.7588 69.4771 80.8654 69.5015 80.9907 69.5015C81.1258 69.5015 81.2568 69.4714 81.3838 69.4112C81.4474 69.3802 81.5078 69.3429 81.5648 69.2992L80.7738 68.3689ZM80.9143 67.7196L81.1323 67.5728C81.2349 67.5045 81.3081 67.4377 81.3521 67.3726C81.396 67.3059 81.418 67.2229 81.418 67.1236C81.418 67.039 81.3854 66.9609 81.3203 66.8892C81.2552 66.8176 81.1632 66.7818 81.0444 66.7818C80.9614 66.7818 80.8914 66.8013 80.8345 66.8404C80.7775 66.8778 80.7344 66.9283 80.7051 66.9918C80.6774 67.0536 80.6636 67.1228 80.6636 67.1993C80.6636 67.2725 80.6823 67.3482 80.7197 67.4263C80.7572 67.5028 80.8084 67.5834 80.8735 67.668C80.8868 67.685 80.9004 67.7021 80.9143 67.7196ZM87.1333 68.7618H86.5229C86.505 68.9164 86.4676 69.0474 86.4106 69.1549C86.3553 69.2607 86.2731 69.3412 86.1641 69.3966C86.0566 69.4519 85.9159 69.4796 85.7417 69.4796C85.5985 69.4796 85.4756 69.4511 85.373 69.3941C85.2705 69.3372 85.1859 69.2566 85.1191 69.1524C85.054 69.0483 85.0052 68.9237 84.9727 68.7789C84.9417 68.6324 84.9263 68.4696 84.9263 68.2906V67.9903C84.9263 67.8015 84.9434 67.6339 84.9775 67.4874C85.0133 67.3393 85.0662 67.2148 85.1362 67.1138C85.2062 67.0129 85.2933 66.9364 85.3975 66.8844C85.5016 66.8323 85.6237 66.8062 85.7637 66.8062C85.9346 66.8062 86.0729 66.8355 86.1787 66.8941C86.2845 66.9511 86.3643 67.0341 86.418 67.1431C86.4733 67.2522 86.5091 67.3832 86.5254 67.5362H87.1357C87.1113 67.2986 87.0446 67.0878 86.9355 66.9039C86.8281 66.72 86.6768 66.5759 86.4814 66.4718C86.2861 66.3676 86.0469 66.3155 85.7637 66.3155C85.5407 66.3155 85.3397 66.3546 85.1606 66.4327C84.9832 66.5108 84.8311 66.6239 84.7041 66.7721C84.5771 66.9185 84.4795 67.0951 84.4111 67.3018C84.3444 67.5085 84.311 67.7397 84.311 67.9952V68.2906C84.311 68.5461 84.3436 68.7773 84.4087 68.984C84.4754 69.1907 84.5715 69.3673 84.6968 69.5138C84.8221 69.6586 84.9727 69.7709 85.1484 69.8507C85.3242 69.9288 85.522 69.9679 85.7417 69.9679C86.0282 69.9679 86.2715 69.9158 86.4717 69.8116C86.6719 69.7074 86.8273 69.565 86.938 69.3844C87.0487 69.2021 87.1138 68.9945 87.1333 68.7618ZM90.5244 68.2393V68.044C90.5244 67.7755 90.4886 67.5354 90.417 67.3238C90.347 67.1106 90.2469 66.9291 90.1167 66.7794C89.9865 66.628 89.8311 66.5133 89.6504 66.4351C89.4697 66.3554 89.2695 66.3155 89.0498 66.3155C88.8317 66.3155 88.6323 66.3554 88.4517 66.4351C88.2726 66.5133 88.1172 66.628 87.9854 66.7794C87.8551 66.9291 87.7542 67.1106 87.6826 67.3238C87.611 67.5354 87.5752 67.7755 87.5752 68.044V68.2393C87.5752 68.5079 87.611 68.7488 87.6826 68.962C87.7559 69.1752 87.8584 69.3567 87.9902 69.5064C88.1221 69.6562 88.2775 69.7709 88.4565 69.8507C88.6372 69.9288 88.8366 69.9679 89.0547 69.9679C89.2744 69.9679 89.4746 69.9288 89.6553 69.8507C89.8359 69.7709 89.9906 69.6562 90.1191 69.5064C90.2493 69.3567 90.3494 69.1752 90.4194 68.962C90.4894 68.7488 90.5244 68.5079 90.5244 68.2393ZM89.9116 68.0391V68.2393C89.9116 68.4379 89.8921 68.6137 89.853 68.7667C89.8156 68.9197 89.7603 69.0491 89.687 69.1549C89.6138 69.259 89.5243 69.338 89.4185 69.3917C89.3127 69.4438 89.1914 69.4698 89.0547 69.4698C88.9196 69.4698 88.7992 69.4438 88.6934 69.3917C88.5876 69.338 88.4964 69.259 88.4199 69.1549C88.3451 69.0491 88.2881 68.9197 88.249 68.7667C88.21 68.6137 88.1904 68.4379 88.1904 68.2393V68.0391C88.1904 67.8406 88.21 67.6656 88.249 67.5142C88.2881 67.3612 88.3442 67.2335 88.4175 67.1309C88.4923 67.0268 88.5827 66.9486 88.6885 66.8966C88.7943 66.8429 88.9147 66.816 89.0498 66.816C89.1849 66.816 89.3062 66.8429 89.4136 66.8966C89.521 66.9486 89.6113 67.0268 89.6846 67.1309C89.7594 67.2335 89.8156 67.3612 89.853 67.5142C89.8921 67.6656 89.9116 67.8406 89.9116 68.0391Z"/></symbol><symbol id="client2" width="168" height="88" viewBox="0 0 168 88" ><rect x="0.5" y="0.5" width="167" height="87" rx="3.5"/><path fill-rule="evenodd" clip-rule="evenodd" d="M82.1136 21.9345H81.977C81.7671 21.9218 81.5571 21.9167 81.3471 21.9116H81.3471H81.3269H80.8918C80.4946 21.9116 80.0898 21.9218 79.6876 21.9421C79.6573 21.9399 79.6269 21.9399 79.5966 21.9421C75.9522 22.1486 72.3817 23.0595 69.0805 24.6249L68.6479 24.8334V46.9746L69.6598 46.6313C70.5477 46.3261 71.4938 46.0515 72.4728 45.7972C75.1193 45.1178 77.8367 44.7567 80.568 44.7216V47.6306C80.2062 47.6332 79.8546 47.6434 79.503 47.6612H79.4195C77.3175 47.7765 75.2317 48.0967 73.1913 48.6173C70.6072 49.2643 68.1143 50.2357 65.7716 51.5086V23.1119C68.2047 21.6928 70.8253 20.6269 73.5556 19.946C75.9527 19.3271 78.4169 19.0093 80.8918 19H81.3193C81.8303 19.0127 82.3287 19.0356 82.7967 19.0712C84.0297 19.1578 85.2528 19.3526 86.4521 19.6535V22.5168C85.2874 22.2455 84.1032 22.067 82.9105 21.9828C82.8863 21.9808 82.8621 21.9787 82.8379 21.9767C82.5911 21.9556 82.344 21.9345 82.1136 21.9345ZM87.1528 24.8614C87.7877 24.9097 88.4455 24.9326 89.1108 24.9326C91.7125 24.9231 94.3031 24.5908 96.8239 23.9434C99.4068 23.294 101.899 22.3218 104.241 21.0496V48.9402C101.807 50.3585 99.1853 51.4243 96.4546 52.1061C94.0571 52.7227 91.5931 53.0395 89.1184 53.0496C87.2433 53.0647 85.3737 52.8443 83.553 52.3935V24.3223C83.983 24.4215 84.4257 24.513 84.876 24.5893C85.6147 24.7139 86.3939 24.8054 87.1528 24.8614ZM101.347 25.0775L100.335 25.4183C99.4042 25.7311 98.4657 26.0108 97.5221 26.26C94.7749 26.966 91.9514 27.3281 89.1158 27.3382C88.4556 27.3382 87.8485 27.3204 87.2616 27.2822L86.4546 27.2288V47.3178V50.0057L87.1477 50.0667C87.7903 50.1227 88.4531 50.1506 89.1209 50.1506C91.3544 50.1412 93.5781 49.8533 95.7412 49.2937C97.5223 48.8469 99.2552 48.2243 100.914 47.4348L101.347 47.2263V25.0775Z"/><path d="M67.7371 61.2124C67.5917 61.0615 67.4163 60.943 67.2224 60.8646C67.0284 60.7862 66.8203 60.7496 66.6114 60.7572C66.3888 60.7542 66.1678 60.7957 65.9613 60.8793C65.7719 60.9547 65.5998 61.068 65.4553 61.2124C65.3125 61.3572 65.2013 61.5304 65.129 61.721C65.0497 61.9207 65.0101 62.1341 65.0126 62.3491V66.1431C65.0036 66.4104 65.0546 66.6764 65.1619 66.9212C65.2514 67.1156 65.3807 67.2889 65.5413 67.4298C65.693 67.5575 65.871 67.6495 66.0625 67.6994C66.2469 67.7512 66.4376 67.7777 66.6291 67.7782C66.8404 67.7803 67.0495 67.7351 67.2413 67.646C67.4309 67.563 67.6028 67.4438 67.7473 67.295C67.8881 67.1476 68.0005 66.9752 68.0786 66.7864C68.1597 66.5951 68.201 66.3892 68.2001 66.1812V65.7566H67.2084V66.0948C67.2114 66.2103 67.1916 66.3252 67.1502 66.433C67.1179 66.5137 67.0688 66.5866 67.006 66.6466C66.9446 66.6962 66.8742 66.7334 66.7986 66.7559C66.7316 66.7782 66.6617 66.7902 66.5912 66.7915C66.5026 66.8018 66.413 66.7885 66.3312 66.7527C66.2495 66.717 66.1786 66.6602 66.1257 66.5881C66.0322 66.4356 65.9864 66.2585 65.9942 66.0795V62.5423C65.988 62.3462 66.0297 62.1515 66.1156 61.9753C66.1671 61.8952 66.2399 61.8313 66.3258 61.7908C66.4117 61.7503 66.5071 61.7349 66.6013 61.7464C66.6868 61.7434 66.7717 61.7612 66.8488 61.7984C66.9259 61.8356 66.9929 61.8911 67.044 61.96C67.155 62.1057 67.213 62.2852 67.2084 62.4686V62.7966H68.19V62.4101C68.1919 62.1831 68.1507 61.9578 68.0685 61.7464C67.9953 61.5476 67.8825 61.3659 67.7371 61.2124Z"/><path d="M73.6289 61.1691C73.3127 60.9021 72.9136 60.7546 72.5007 60.7521C72.2987 60.7529 72.0984 60.7891 71.9087 60.8589C71.7161 60.9279 71.5384 61.0332 71.3851 61.1691C71.2208 61.3168 71.0897 61.498 71.0005 61.7006C70.9006 61.9323 70.8515 62.183 70.8563 62.4355V66.0744C70.8495 66.3304 70.8987 66.5847 71.0005 66.8195C71.0903 67.0151 71.2215 67.1887 71.3851 67.328C71.5367 67.4688 71.7147 67.5777 71.9087 67.6485C72.0984 67.7183 72.2987 67.7544 72.5007 67.7553C72.7027 67.7549 72.9031 67.7187 73.0926 67.6485C73.29 67.5767 73.4719 67.468 73.6289 67.328C73.7871 67.1861 73.9145 67.013 74.0033 66.8195C74.1051 66.5847 74.1544 66.3304 74.1475 66.0744V62.4355C74.1524 62.183 74.1032 61.9323 74.0033 61.7006C73.9151 61.5001 73.7878 61.3194 73.6289 61.1691ZM73.166 66.0744C73.1743 66.1714 73.1609 66.269 73.1268 66.3601C73.0926 66.4512 73.0386 66.5334 72.9687 66.6008C72.8377 66.7106 72.6725 66.7708 72.5019 66.7708C72.3313 66.7708 72.1662 66.7106 72.0352 66.6008C71.9652 66.5334 71.9112 66.4512 71.8771 66.3601C71.8429 66.269 71.8295 66.1714 71.8379 66.0744V62.4355C71.8295 62.3385 71.8429 62.2409 71.8771 62.1498C71.9112 62.0587 71.9652 61.9764 72.0352 61.9091C72.1662 61.7993 72.3313 61.7391 72.5019 61.7391C72.6725 61.7391 72.8377 61.7993 72.9687 61.9091C73.0386 61.9764 73.0926 62.0587 73.1268 62.1498C73.1609 62.2409 73.1743 62.3385 73.166 62.4355V66.0744Z"/><path d="M81.3673 67.6994V60.8107H80.4136L79.1614 64.4572H79.1437L77.8813 60.8107H76.9377V67.6994H77.9218V63.5087H77.9395L78.9033 66.4712H79.3941L80.3655 63.5087H80.3832V67.6994H81.3673Z"/><path d="M86.9581 61.2937C86.8065 61.1237 86.6153 60.9943 86.4015 60.9173C86.1712 60.8424 85.9302 60.8063 85.6881 60.8105H84.226V67.6993H85.2075V65.0089H85.7134C86.0197 65.0228 86.3244 64.958 86.5988 64.8207C86.822 64.6968 87.0081 64.515 87.1377 64.2943C87.2512 64.1111 87.3277 63.9071 87.3628 63.6942C87.4014 63.435 87.4192 63.173 87.4159 62.911C87.4255 62.5802 87.3932 62.2495 87.3198 61.9269C87.2543 61.6885 87.1299 61.4706 86.9581 61.2937ZM86.4521 63.3941C86.4479 63.5188 86.4168 63.6412 86.361 63.7527C86.3049 63.8586 86.2162 63.9434 86.1081 63.9942C85.9627 64.0593 85.8041 64.0889 85.6451 64.0807H85.1974V61.7387H85.7033C85.8557 61.7312 86.0075 61.7609 86.146 61.8251C86.2475 61.8834 86.3281 61.9724 86.3762 62.0794C86.4299 62.2004 86.4591 62.331 86.4622 62.4634C86.4622 62.6084 86.4622 62.7609 86.4622 62.9211C86.4622 63.0813 86.4723 63.2466 86.4622 63.3941H86.4521Z"/><path d="M91.6077 60.8107H90.8032L89.2854 67.6994H90.2669L90.5553 66.2194H91.8935L92.1819 67.6994H93.1635L91.6077 60.8107ZM90.702 65.2811L91.1852 62.784H91.2029L91.6836 65.2811H90.702Z"/><path d="M97.9497 64.9607H97.932L96.4496 60.8107H95.506V67.6994H96.4875V63.557H96.5078L98.0079 67.6994H98.9312V60.8107H97.9497V64.9607Z"/><path d="M103.948 60.8107L103.158 63.5494H103.138L102.349 60.8107H101.309L102.657 64.7878V67.6994H103.639V64.7878L104.987 60.8107H103.948Z"/><path d="M65 69.6445H65.4731V70.9719H65.7943V69.6445H66.2649V69.3724H65V69.6445Z"/><path d="M68.9767 69.3724L68.3569 70.9719H68.6984L68.83 70.6083H69.4675L69.6041 70.9719H69.9532L69.3182 69.3724H68.9767ZM68.9261 70.3387L69.1437 69.7462L69.3612 70.3387H68.9261Z"/><path d="M72.9079 70.3821H73.2773V70.5881C73.1694 70.6746 73.0358 70.722 72.8978 70.7229C72.8333 70.7265 72.7689 70.7145 72.7099 70.688C72.6509 70.6614 72.5991 70.6211 72.5588 70.5703C72.474 70.4485 72.4322 70.3017 72.4399 70.1533C72.4399 69.7973 72.5942 69.6193 72.9003 69.6193C72.9809 69.6112 73.0617 69.6325 73.128 69.6791C73.1944 69.7257 73.2419 69.7947 73.2621 69.8735L73.5783 69.8125C73.51 69.4997 73.2849 69.3421 72.9003 69.3421C72.6947 69.3366 72.4947 69.4103 72.3413 69.5481C72.2607 69.6276 72.1983 69.7239 72.1586 69.8302C72.1188 69.9365 72.1026 70.0502 72.1111 70.1634C72.1017 70.3823 72.1749 70.5966 72.316 70.7636C72.3943 70.8444 72.4892 70.9071 72.594 70.9475C72.6988 70.9879 72.8111 71.0049 72.9231 70.9975C73.1734 71.0045 73.4165 70.9133 73.6011 70.7432V70.1126H72.9079V70.3821Z"/><path d="M76.9226 69.3724H76.5988V70.9719H77.7194V70.6998H76.9226V69.3724Z"/><path d="M80.3175 69.3724H79.9937V70.9719H80.3175V69.3724Z"/><path d="M83.6365 70.4405L82.9813 69.3724H82.6676V70.9719H82.9686V69.9268L83.6112 70.9719H83.9325V69.3724H83.6365V70.4405Z"/><path d="M86.6368 70.2675H87.4337V69.9954H86.6368V69.6445H87.4944V69.3724H86.313V70.9719H87.5273V70.6998H86.6368V70.2675Z"/><path d="M93.9122 70.0031H93.2823V69.3724H92.9611V70.9719H93.2823V70.2726H93.9122V70.9719H94.2335V69.3724H93.9122V70.0031Z"/><path d="M96.9302 70.2675H97.7296V69.9954H96.9302V69.6445H97.7903V69.3724H96.6089V70.9719H97.8206V70.6998H96.9302V70.2675Z"/><path d="M101.023 70.2676C101.302 70.2244 101.443 70.0769 101.443 69.8226C101.451 69.7546 101.441 69.6856 101.413 69.623C101.386 69.5603 101.342 69.5063 101.286 69.4666C101.141 69.3938 100.98 69.3614 100.818 69.3725H100.14V70.972H100.462V70.3032H100.525C100.593 70.299 100.662 70.3112 100.725 70.3388C100.772 70.3678 100.811 70.4079 100.839 70.4558L101.188 70.9644H101.572L101.377 70.6516C101.291 70.4972 101.17 70.3656 101.023 70.2676ZM100.699 70.0464H100.462V69.6446H100.715C100.825 69.6357 100.936 69.6486 101.041 69.6827C101.064 69.7034 101.083 69.7291 101.095 69.7579C101.107 69.7867 101.113 69.8179 101.111 69.8492C101.11 69.8804 101.101 69.911 101.087 69.9385C101.072 69.966 101.051 69.9899 101.026 70.0082C100.92 70.0406 100.81 70.0535 100.699 70.0464Z"/><path d="M104.11 70.2675H104.906V69.9954H104.11V69.6445H104.97V69.3724H103.786V70.9719H105V70.6998H104.11V70.2675Z"/></symbol><symbol id="client3" width="168" height="88" viewBox="0 0 168 88" ><rect x="0.5" y="0.5" width="167" height="87" rx="3.5"/><path d="M68.8098 65.2233C68.8259 65.2236 68.8418 65.2268 68.8565 65.2324C68.8712 65.2381 68.8844 65.2462 68.8954 65.2563L69.1162 65.4639C68.9448 65.6319 68.733 65.7662 68.4951 65.8578C68.2167 65.9577 67.9165 66.0059 67.6146 65.9993C67.3309 66.0043 67.049 65.9593 66.7865 65.8672C66.5497 65.7826 66.337 65.6555 66.1626 65.4945C65.9848 65.3275 65.8477 65.1319 65.7596 64.919C65.6632 64.6817 65.6155 64.4319 65.6189 64.1807C65.6149 63.9279 65.6664 63.6766 65.7707 63.44C65.8671 63.2258 66.0126 63.0301 66.1985 62.8645C66.387 62.702 66.6125 62.5744 66.861 62.4894C67.1329 62.3994 67.4224 62.3545 67.714 62.3573C67.9848 62.3517 68.2542 62.3926 68.5062 62.4776C68.7248 62.5587 68.9255 62.6712 69.0997 62.8102L68.9147 63.0319C68.9019 63.0475 68.8861 63.0611 68.8678 63.072C68.846 63.0848 68.8196 63.0907 68.7933 63.0886C68.7646 63.0869 68.737 63.0787 68.7132 63.065L68.6138 63.006L68.4758 62.9305C68.4162 62.9025 68.3544 62.8781 68.2909 62.8574C68.209 62.8324 68.125 62.8126 68.0397 62.7984C67.9314 62.7814 67.8213 62.7735 67.7112 62.7748C67.5012 62.7726 67.2929 62.8063 67.0984 62.8739C66.917 62.9365 66.7533 63.0314 66.6181 63.1522C66.4805 63.2807 66.3744 63.4315 66.3062 63.5957C66.2284 63.7835 66.1901 63.9815 66.193 64.1807C66.1897 64.3829 66.228 64.5841 66.3062 64.7751C66.3735 64.9378 66.4776 65.0877 66.6126 65.2162C66.739 65.336 66.8957 65.4295 67.0708 65.4898C67.251 65.5536 67.4444 65.5857 67.6394 65.5842C67.7521 65.5856 67.8647 65.5793 67.9762 65.5653C68.1582 65.5463 68.3328 65.4923 68.4869 65.4072C68.5641 65.3637 68.6371 65.3148 68.7049 65.261C68.7333 65.2379 68.7706 65.2244 68.8098 65.2233Z"/><path d="M75.1861 64.1803C75.1896 64.4305 75.139 64.6792 75.0371 64.9138C74.9471 65.1266 74.8054 65.3207 74.6213 65.4834C74.4371 65.646 74.2148 65.7734 73.9688 65.8573C73.4284 66.0334 72.831 66.0334 72.2906 65.8573C72.0462 65.7721 71.8253 65.6444 71.6419 65.4822C71.4579 65.3167 71.3151 65.1209 71.2223 64.9067C71.0235 64.4317 71.0235 63.9124 71.2223 63.4373C71.3165 63.2231 71.459 63.0267 71.6419 62.8595C71.8268 62.7024 72.0476 62.5796 72.2906 62.4986C72.8303 62.3193 73.4291 62.3193 73.9688 62.4986C74.214 62.5837 74.4359 62.7114 74.6203 62.8736C74.802 63.0376 74.9437 63.2308 75.0371 63.442C75.1393 63.6782 75.1899 63.9285 75.1861 64.1803ZM74.6065 64.1803C74.6108 63.9801 74.5753 63.7807 74.5016 63.5906C74.4397 63.4278 74.3392 63.2777 74.2062 63.1496C74.0768 63.0284 73.9174 62.9333 73.7397 62.8713C73.347 62.7423 72.9123 62.7423 72.5197 62.8713C72.3419 62.9333 72.1826 63.0284 72.0532 63.1496C71.9184 63.2769 71.8168 63.4272 71.7551 63.5906C71.6146 63.9746 71.6146 64.386 71.7551 64.7699C71.8174 64.9331 71.9189 65.0833 72.0532 65.211C72.1828 65.3315 72.3421 65.4257 72.5197 65.487C72.913 65.6126 73.3463 65.6126 73.7397 65.487C73.9173 65.4257 74.0766 65.3315 74.2062 65.211C74.3386 65.0826 74.4391 64.9325 74.5016 64.7699C74.5757 64.5799 74.6111 64.3805 74.6065 64.1803Z"/><path d="M79.5365 64.7987L79.5944 64.9308C79.6165 64.8836 79.6358 64.8412 79.6579 64.7987C79.679 64.7544 79.7029 64.7111 79.7297 64.669L81.1402 62.4781C81.1678 62.4404 81.1927 62.4168 81.2203 62.4097C81.2578 62.4 81.297 62.396 81.3362 62.3979H81.753V65.9614H81.2589V63.3413C81.2589 63.3083 81.2589 63.2705 81.2589 63.2304C81.2562 63.1896 81.2562 63.1486 81.2589 63.1078L79.8401 65.3293C79.8221 65.3626 79.7933 65.3908 79.757 65.4104C79.7208 65.4301 79.6787 65.4404 79.6358 65.4402H79.5558C79.5128 65.4407 79.4706 65.4305 79.4343 65.4108C79.398 65.3911 79.3692 65.3628 79.3515 65.3293L77.8913 63.0937C77.8913 63.1361 77.8913 63.1786 77.8913 63.221C77.8913 63.2635 77.8913 63.3012 77.8913 63.3342V65.9543H77.4138V62.3979H77.8306C77.8697 62.396 77.909 62.4 77.9465 62.4097C77.9807 62.4242 78.008 62.4484 78.0238 62.4781L79.4647 64.6714C79.493 64.7119 79.517 64.7545 79.5365 64.7987Z"/><path d="M84.8447 64.6217V65.9564H84.2926V62.3978H85.5237C85.7561 62.394 85.9878 62.4202 86.211 62.4756C86.3897 62.5189 86.5554 62.5945 86.6969 62.6973C86.8195 62.7937 86.914 62.9132 86.9729 63.0463C87.0381 63.1915 87.0699 63.346 87.0667 63.5015C87.0692 63.6576 87.0344 63.8124 86.9646 63.9566C86.8983 64.0932 86.7963 64.215 86.6665 64.3127C86.5249 64.4198 86.3584 64.5002 86.1779 64.5486C85.963 64.6072 85.7382 64.6351 85.5127 64.6311L84.8447 64.6217ZM84.8447 64.2396H85.5127C85.6578 64.2412 85.8022 64.2229 85.9405 64.1854C86.0546 64.1526 86.1598 64.1004 86.2497 64.0321C86.3326 63.9668 86.3968 63.8862 86.4374 63.7963C86.4826 63.7012 86.5051 63.5994 86.5036 63.4968C86.5101 63.3978 86.4912 63.2989 86.4483 63.2069C86.4054 63.1148 86.3395 63.0319 86.2552 62.9638C86.0443 62.8231 85.7794 62.755 85.5127 62.7728H84.8447V64.2396Z"/><path d="M92.2645 65.9613H91.8283C91.7846 65.9627 91.7416 65.951 91.7069 65.9282C91.6756 65.906 91.651 65.8777 91.6351 65.8457L91.2597 64.9848H89.3744L88.9852 65.8457C88.9709 65.8772 88.9471 65.9048 88.9162 65.9259C88.8811 65.95 88.837 65.9626 88.792 65.9613H88.3558L90.012 62.3975H90.5862L92.2645 65.9613ZM89.5317 64.6381H91.0886L90.4316 63.1876C90.3814 63.0785 90.3399 62.9666 90.3074 62.8527L90.2439 63.039C90.2246 63.0956 90.2025 63.1475 90.1832 63.1899L89.5317 64.6381Z"/><path d="M94.6495 62.414C94.6825 62.4295 94.7109 62.4513 94.7323 62.4777L97.1476 65.1641C97.1476 65.1216 97.1476 65.0792 97.1476 65.0391C97.1476 64.999 97.1476 64.9589 97.1476 64.9212V62.3975H97.6417V65.9613H97.3657C97.3265 65.9623 97.2876 65.955 97.2525 65.9401C97.2184 65.9231 97.1884 65.9006 97.1642 65.874L94.7517 63.19C94.7543 63.2309 94.7543 63.2718 94.7517 63.3126C94.7517 63.3527 94.7517 63.3881 94.7517 63.4211V65.9613H94.2576V62.3975H94.5502C94.5843 62.3967 94.6182 62.4024 94.6495 62.414Z"/><path d="M101.71 64.5438V65.9589H101.158V64.5438L99.6318 62.3975H100.126C100.169 62.3954 100.211 62.4062 100.245 62.4282C100.275 62.4511 100.3 62.4782 100.319 62.5084L101.274 63.8928C101.313 63.9518 101.346 64.006 101.374 64.0579C101.401 64.1098 101.423 64.1593 101.443 64.2089L101.514 64.0556C101.541 63.9995 101.573 63.9451 101.608 63.8928L102.55 62.4989C102.569 62.4711 102.593 62.4457 102.621 62.4235C102.654 62.399 102.697 62.3864 102.74 62.3881H103.24L101.71 64.5438Z"/><path d="M79.2632 56.417C79.5033 56.4429 79.7462 56.4642 79.9919 56.483C83.7165 55.0595 86.8673 52.7295 89.0506 49.7844C91.2338 46.8393 92.3527 43.4097 92.2672 39.9243L88.1626 36.4172C88.9972 40.1281 88.6068 43.9642 87.0351 47.4963C85.4634 51.0284 82.7724 54.1171 79.2632 56.417Z"/><path d="M77.7975 56.2539L77.9079 56.2728C81.6578 53.9811 84.5168 50.7809 86.1151 47.0861C87.7135 43.3912 87.9776 39.3717 86.8735 35.5472L81.0271 30.5521C83.3918 34.658 84.3436 39.253 83.7719 43.8029C83.2002 48.3528 81.1284 52.6705 77.7975 56.2539Z"/><path d="M97.6251 44.0424C96.6318 47.872 94.2195 51.3258 90.7463 53.8911C89.7319 54.6444 88.6378 55.3155 87.478 55.8957C90.3062 55.1855 92.9057 53.9298 95.0761 52.2255C97.2465 50.5213 98.9298 48.4139 99.9962 46.0659L97.6251 44.0424Z"/><path d="M96.6948 43.4784L93.3189 40.594C93.2544 43.8825 92.1602 47.0963 90.15 49.9012C88.1399 52.7062 85.2871 55 81.8883 56.5442H81.9049C82.6623 56.5439 83.419 56.5053 84.1711 56.4286C87.3475 55.3209 90.1535 53.5586 92.3388 51.2989C94.524 49.0392 96.0206 46.3525 96.6948 43.4784Z"/><path d="M78.2861 28.4457L74.2587 25C70.6584 26.1887 67.562 28.2784 65.3747 30.9955C63.1875 33.7127 62.0112 36.9308 62 40.2285V40.2285C62.0135 43.8725 63.449 47.4085 66.0793 50.2769C68.7096 53.1454 72.3845 55.1824 76.5222 56.0656C80.216 52.2205 82.3786 47.4693 82.6958 42.5023C83.013 37.5353 81.4683 32.6113 78.2861 28.4457Z"/><path d="M106 42.9478C105.985 38.6245 103.969 34.4818 100.391 31.4247C96.8127 28.3676 91.964 26.6447 86.9039 26.6322C84.5657 26.6301 82.2473 26.9988 80.0665 27.7194L104.725 48.7873C105.569 46.925 106.001 44.945 106 42.9478Z"/></symbol><symbol id="client4" width="104" height="56" viewBox="0 0 104 56" ><path d="M24.0782 21.5179H24.0753C21.6897 21.5179 19.7557 23.2616 19.7557 25.4124V25.415C19.7557 27.5658 21.6897 29.3094 24.0753 29.3094H24.0782C26.4638 29.3094 28.3978 27.5658 28.3978 25.415V25.4124C28.3978 23.2616 26.4638 21.5179 24.0782 21.5179Z"/><path d="M55.9614 20.273C55.9547 17.2855 54.6356 14.4221 52.2929 12.3094C49.9502 10.1967 46.7746 9.00678 43.4611 9V9C40.1466 9.00543 36.9696 10.1948 34.6257 12.3076C32.2817 14.4205 30.9619 17.2846 30.9551 20.273V36.7472C30.9551 36.7472 55.9586 34.2364 55.9614 20.2755V20.273Z"/><path d="M11 42.1543C11.006 44.233 11.9243 46.2251 13.5543 47.6952C15.1843 49.1653 17.3935 49.9939 19.699 50C22.004 49.9939 24.2127 49.1657 25.8426 47.6961C27.4725 46.2265 28.3912 44.2351 28.398 42.1569V30.6938C28.398 30.6938 11 32.4422 11 42.1543ZM19.699 44.2082C19.2484 44.2082 18.808 44.0877 18.4334 43.862C18.0588 43.6364 17.7668 43.3156 17.5944 42.9403C17.422 42.565 17.3769 42.152 17.4648 41.7536C17.5527 41.3552 17.7696 40.9893 18.0882 40.702C18.4068 40.4148 18.8127 40.2192 19.2546 40.1399C19.6965 40.0607 20.1545 40.1014 20.5707 40.2568C20.987 40.4123 21.3427 40.6755 21.593 41.0133C21.8433 41.351 21.9769 41.7481 21.9769 42.1543C21.9781 42.4247 21.92 42.6926 21.806 42.9427C21.692 43.1927 21.5244 43.4201 21.3128 43.6116C21.1011 43.8031 20.8496 43.9551 20.5727 44.0588C20.2958 44.1625 19.9988 44.2159 19.699 44.2159V44.2082Z"/><path d="M35.6089 40.515V44.7806H34.73V40.515H35.6089ZM37.3081 42.3373V43.0228H35.3687V42.3373H37.3081ZM37.5132 40.515V41.2035H35.3687V40.515H37.5132ZM41.5269 42.5482V42.7504C41.5269 43.0746 41.4829 43.3656 41.395 43.6234C41.3071 43.8812 41.1831 44.101 41.0229 44.2826C40.8628 44.4623 40.6714 44.6 40.4487 44.6957C40.228 44.7914 39.9829 44.8392 39.7134 44.8392C39.4458 44.8392 39.2007 44.7914 38.978 44.6957C38.7573 44.6 38.5659 44.4623 38.4038 44.2826C38.2417 44.101 38.1157 43.8812 38.0259 43.6234C37.938 43.3656 37.894 43.0746 37.894 42.7504V42.5482C37.894 42.222 37.938 41.931 38.0259 41.6752C38.1138 41.4174 38.2378 41.1976 38.3979 41.016C38.5601 40.8344 38.7515 40.6957 38.9722 40.6C39.1948 40.5043 39.4399 40.4564 39.7075 40.4564C39.9771 40.4564 40.2222 40.5043 40.4429 40.6C40.6655 40.6957 40.8569 40.8344 41.0171 41.016C41.1792 41.1976 41.3042 41.4174 41.3921 41.6752C41.4819 41.931 41.5269 42.222 41.5269 42.5482ZM40.6392 42.7504V42.5424C40.6392 42.3158 40.6187 42.1166 40.5776 41.9447C40.5366 41.7728 40.4761 41.6283 40.396 41.5111C40.3159 41.3939 40.2183 41.306 40.103 41.2474C39.9878 41.1869 39.856 41.1566 39.7075 41.1566C39.5591 41.1566 39.4272 41.1869 39.312 41.2474C39.1987 41.306 39.1021 41.3939 39.022 41.5111C38.9438 41.6283 38.8843 41.7728 38.8433 41.9447C38.8022 42.1166 38.7817 42.3158 38.7817 42.5424V42.7504C38.7817 42.975 38.8022 43.1742 38.8433 43.348C38.8843 43.5199 38.9448 43.6654 39.0249 43.7845C39.105 43.9017 39.2026 43.9906 39.3179 44.0511C39.4331 44.1117 39.5649 44.142 39.7134 44.142C39.8618 44.142 39.9937 44.1117 40.1089 44.0511C40.2241 43.9906 40.3208 43.9017 40.3989 43.7845C40.4771 43.6654 40.5366 43.5199 40.5776 43.348C40.6187 43.1742 40.6392 42.975 40.6392 42.7504ZM44.3804 43.6644C44.3804 43.5883 44.3687 43.5199 44.3452 43.4594C44.3237 43.3969 44.2827 43.3402 44.2222 43.2894C44.1616 43.2367 44.0767 43.1849 43.9673 43.1342C43.8579 43.0834 43.7163 43.0306 43.5425 42.976C43.3491 42.9135 43.1655 42.8431 42.9917 42.765C42.8198 42.6869 42.6675 42.5961 42.5347 42.4926C42.4038 42.3871 42.3003 42.265 42.2241 42.1263C42.1499 41.9877 42.1128 41.8265 42.1128 41.6429C42.1128 41.4652 42.1519 41.3041 42.23 41.1595C42.3081 41.0131 42.4175 40.8881 42.5581 40.7845C42.6987 40.6791 42.8647 40.598 43.0562 40.5414C43.2495 40.4847 43.4614 40.4564 43.6919 40.4564C44.0063 40.4564 44.2808 40.5131 44.5151 40.6263C44.7495 40.7396 44.9312 40.8949 45.0601 41.0922C45.1909 41.2894 45.2563 41.515 45.2563 41.7689H44.3833C44.3833 41.6439 44.3569 41.5345 44.3042 41.4408C44.2534 41.3451 44.1753 41.2699 44.0698 41.2152C43.9663 41.1605 43.8354 41.1332 43.6772 41.1332C43.5249 41.1332 43.3979 41.1566 43.2964 41.2035C43.1948 41.2484 43.1187 41.3099 43.0679 41.3881C43.0171 41.4642 42.9917 41.5502 42.9917 41.6459C42.9917 41.7181 43.0093 41.7836 43.0444 41.8422C43.0815 41.9008 43.1362 41.9554 43.2085 42.0062C43.2808 42.057 43.3696 42.1049 43.4751 42.1498C43.5806 42.1947 43.7026 42.2386 43.8413 42.2816C44.0737 42.3519 44.2778 42.431 44.4536 42.5189C44.6313 42.6068 44.7798 42.7054 44.8989 42.8148C45.0181 42.9242 45.1079 43.0482 45.1685 43.1869C45.229 43.3256 45.2593 43.4828 45.2593 43.6586C45.2593 43.8441 45.2231 44.0101 45.1509 44.1566C45.0786 44.3031 44.9741 44.4271 44.8374 44.5287C44.7007 44.6302 44.5376 44.7074 44.3481 44.7601C44.1587 44.8129 43.9468 44.8392 43.7124 44.8392C43.5015 44.8392 43.2935 44.8119 43.0884 44.7572C42.8833 44.7006 42.6968 44.6156 42.5288 44.5023C42.3628 44.389 42.23 44.2445 42.1304 44.0687C42.0308 43.8929 41.981 43.6849 41.981 43.4447H42.8628C42.8628 43.5775 42.8833 43.6898 42.9243 43.7816C42.9653 43.8734 43.0229 43.9476 43.0972 44.0043C43.1733 44.0609 43.2632 44.1019 43.3667 44.1273C43.4722 44.1527 43.5874 44.1654 43.7124 44.1654C43.8647 44.1654 43.9897 44.1439 44.0874 44.101C44.187 44.058 44.2603 43.9984 44.3071 43.9222C44.356 43.8461 44.3804 43.7601 44.3804 43.6644ZM47.7642 40.515V44.7806H46.8882V40.515H47.7642ZM49.0767 40.515V41.2035H45.5962V40.515H49.0767ZM52.4399 44.0951V44.7806H50.1694V44.0951H52.4399ZM50.4565 40.515V44.7806H49.5776V40.515H50.4565ZM52.144 42.2523V42.9203H50.1694V42.2523H52.144ZM52.437 40.515V41.2035H50.1694V40.515H52.437ZM52.9526 40.515H54.5435C54.8696 40.515 55.1499 40.5638 55.3843 40.6615C55.6206 40.7592 55.8022 40.9037 55.9292 41.0951C56.0562 41.2865 56.1196 41.5219 56.1196 41.8011C56.1196 42.0297 56.0806 42.226 56.0024 42.39C55.9263 42.5521 55.8179 42.6879 55.6772 42.7972C55.5386 42.9047 55.3755 42.9906 55.188 43.0551L54.9097 43.2015H53.5269L53.521 42.516H54.5493C54.7036 42.516 54.8315 42.4886 54.9331 42.434C55.0347 42.3793 55.1108 42.3031 55.1616 42.2054C55.2144 42.1078 55.2407 41.9945 55.2407 41.8656C55.2407 41.7289 55.2153 41.6107 55.1646 41.5111C55.1138 41.4115 55.0366 41.3353 54.9331 41.2826C54.8296 41.2299 54.6997 41.2035 54.5435 41.2035H53.8315V44.7806H52.9526V40.515ZM55.3374 44.7806L54.3647 42.8793L55.2935 42.8734L56.2778 44.7396V44.7806H55.3374ZM59.9517 43.2601H58.8647V42.5746H59.9517C60.1196 42.5746 60.2563 42.5472 60.3618 42.4926C60.4673 42.4359 60.5444 42.3578 60.5933 42.2582C60.6421 42.1586 60.6665 42.0463 60.6665 41.9213C60.6665 41.7943 60.6421 41.6761 60.5933 41.5668C60.5444 41.4574 60.4673 41.3695 60.3618 41.3031C60.2563 41.2367 60.1196 41.2035 59.9517 41.2035H59.1694V44.7806H58.2905V40.515H59.9517C60.2856 40.515 60.5718 40.5756 60.8101 40.6967C61.0503 40.8158 61.2339 40.9808 61.3608 41.1918C61.4878 41.4027 61.5513 41.6439 61.5513 41.9154C61.5513 42.1908 61.4878 42.4291 61.3608 42.6302C61.2339 42.8314 61.0503 42.9867 60.8101 43.0961C60.5718 43.2054 60.2856 43.2601 59.9517 43.2601ZM65.02 44.0951V44.7806H62.7495V44.0951H65.02ZM63.0366 40.515V44.7806H62.1577V40.515H63.0366ZM64.7241 42.2523V42.9203H62.7495V42.2523H64.7241ZM65.0171 40.515V41.2035H62.7495V40.515H65.0171ZM67.4985 40.515V44.7806H66.6226V40.515H67.4985ZM68.811 40.515V41.2035H65.3306V40.515H68.811ZM72.1743 44.0951V44.7806H69.9038V44.0951H72.1743ZM70.1909 40.515V44.7806H69.312V40.515H70.1909ZM71.8784 42.2523V42.9203H69.9038V42.2523H71.8784ZM72.1714 40.515V41.2035H69.9038V40.515H72.1714ZM72.687 40.515H74.2778C74.604 40.515 74.8843 40.5638 75.1187 40.6615C75.355 40.7592 75.5366 40.9037 75.6636 41.0951C75.7905 41.2865 75.854 41.5219 75.854 41.8011C75.854 42.0297 75.8149 42.226 75.7368 42.39C75.6606 42.5521 75.5522 42.6879 75.4116 42.7972C75.2729 42.9047 75.1099 42.9906 74.9224 43.0551L74.644 43.2015H73.2612L73.2554 42.516H74.2837C74.438 42.516 74.5659 42.4886 74.6675 42.434C74.769 42.3793 74.8452 42.3031 74.896 42.2054C74.9487 42.1078 74.9751 41.9945 74.9751 41.8656C74.9751 41.7289 74.9497 41.6107 74.8989 41.5111C74.8481 41.4115 74.771 41.3353 74.6675 41.2826C74.564 41.2299 74.4341 41.2035 74.2778 41.2035H73.5659V44.7806H72.687V40.515ZM75.0718 44.7806L74.0991 42.8793L75.0278 42.8734L76.0122 44.7396V44.7806H75.0718ZM78.7515 43.6644C78.7515 43.5883 78.7397 43.5199 78.7163 43.4594C78.6948 43.3969 78.6538 43.3402 78.5933 43.2894C78.5327 43.2367 78.4478 43.1849 78.3384 43.1342C78.229 43.0834 78.0874 43.0306 77.9136 42.976C77.7202 42.9135 77.5366 42.8431 77.3628 42.765C77.1909 42.6869 77.0386 42.5961 76.9058 42.4926C76.7749 42.3871 76.6714 42.265 76.5952 42.1263C76.521 41.9877 76.4839 41.8265 76.4839 41.6429C76.4839 41.4652 76.5229 41.3041 76.6011 41.1595C76.6792 41.0131 76.7886 40.8881 76.9292 40.7845C77.0698 40.6791 77.2358 40.598 77.4272 40.5414C77.6206 40.4847 77.8325 40.4564 78.063 40.4564C78.3774 40.4564 78.6519 40.5131 78.8862 40.6263C79.1206 40.7396 79.3022 40.8949 79.4312 41.0922C79.562 41.2894 79.6274 41.515 79.6274 41.7689H78.7544C78.7544 41.6439 78.728 41.5345 78.6753 41.4408C78.6245 41.3451 78.5464 41.2699 78.4409 41.2152C78.3374 41.1605 78.2065 41.1332 78.0483 41.1332C77.896 41.1332 77.769 41.1566 77.6675 41.2035C77.5659 41.2484 77.4897 41.3099 77.439 41.3881C77.3882 41.4642 77.3628 41.5502 77.3628 41.6459C77.3628 41.7181 77.3804 41.7836 77.4155 41.8422C77.4526 41.9008 77.5073 41.9554 77.5796 42.0062C77.6519 42.057 77.7407 42.1049 77.8462 42.1498C77.9517 42.1947 78.0737 42.2386 78.2124 42.2816C78.4448 42.3519 78.6489 42.431 78.8247 42.5189C79.0024 42.6068 79.1509 42.7054 79.27 42.8148C79.3892 42.9242 79.479 43.0482 79.5396 43.1869C79.6001 43.3256 79.6304 43.4828 79.6304 43.6586C79.6304 43.8441 79.5942 44.0101 79.522 44.1566C79.4497 44.3031 79.3452 44.4271 79.2085 44.5287C79.0718 44.6302 78.9087 44.7074 78.7192 44.7601C78.5298 44.8129 78.3179 44.8392 78.0835 44.8392C77.8726 44.8392 77.6646 44.8119 77.4595 44.7572C77.2544 44.7006 77.0679 44.6156 76.8999 44.5023C76.7339 44.389 76.6011 44.2445 76.5015 44.0687C76.4019 43.8929 76.3521 43.6849 76.3521 43.4447H77.2339C77.2339 43.5775 77.2544 43.6898 77.2954 43.7816C77.3364 43.8734 77.394 43.9476 77.4683 44.0043C77.5444 44.0609 77.6343 44.1019 77.7378 44.1273C77.8433 44.1527 77.9585 44.1654 78.0835 44.1654C78.2358 44.1654 78.3608 44.1439 78.4585 44.101C78.5581 44.058 78.6313 43.9984 78.6782 43.9222C78.7271 43.8461 78.7515 43.7601 78.7515 43.6644Z"/></symbol><symbol id="client5" width="168" height="88" viewBox="0 0 168 88" ><rect x="0.5" y="0.5" width="167" height="87" rx="3.5"/><path d="M58.7919 60.373C59.0374 60.6465 59.1681 60.9891 59.1613 61.3407C59.1738 61.57 59.1288 61.7989 59.0298 62.0105C58.9307 62.2221 58.78 62.4109 58.5889 62.563C58.112 62.8872 57.5213 63.0457 56.925 63.0093H54V56.8769H56.8651C57.4307 56.8431 57.9918 56.9871 58.4525 57.2844C58.6375 57.4238 58.784 57.6 58.8805 57.7991C58.9769 57.9982 59.0206 58.2148 59.0082 58.4317C59.025 58.77 58.907 59.1026 58.6754 59.3694C58.4531 59.6131 58.1459 59.782 57.8036 59.8488C58.1916 59.9125 58.5419 60.0983 58.7919 60.373ZM55.361 59.4473H56.5856C56.8639 59.4659 57.1404 59.3935 57.3643 59.2436C57.4562 59.1686 57.5278 59.0755 57.5734 58.9716C57.619 58.8677 57.6374 58.7558 57.6272 58.6445C57.6358 58.5335 57.617 58.4222 57.5722 58.3186C57.5273 58.215 57.4574 58.1217 57.3676 58.0453C57.137 57.8911 56.852 57.8177 56.5657 57.8386H55.361V59.4473ZM57.4841 61.799C57.5824 61.7222 57.6596 61.6261 57.7099 61.518C57.7601 61.4099 57.7819 61.2928 57.7736 61.1759C57.7811 61.0576 57.7583 60.9394 57.7069 60.8303C57.6556 60.7212 57.5771 60.6242 57.4774 60.5468C57.2379 60.3869 56.9432 60.3084 56.6455 60.3251H55.361V62.0117H56.6622C56.955 62.0269 57.2449 61.9519 57.4841 61.799Z"/><path d="M64.6487 63.0093L63.0547 60.6127H62.4557V63.0093H61.0847V56.8769H63.6803C64.3346 56.8358 64.9814 57.0224 65.4873 57.3982C65.8501 57.731 66.0689 58.1696 66.1043 58.6348C66.1397 59.1001 65.9893 59.5614 65.6803 59.9357C65.36 60.2659 64.9226 60.4861 64.4424 60.5588L66.1395 63.0093H64.6487ZM62.4557 59.7769H63.5772C64.3558 59.7769 64.7452 59.4673 64.7452 58.8482C64.7531 58.7217 64.7318 58.5952 64.6825 58.4766C64.6333 58.358 64.5571 58.2499 64.459 58.1591C64.2129 57.9749 63.896 57.8855 63.5772 57.9105H62.4424L62.4557 59.7769Z"/><path d="M72.1426 61.7752H69.4106L68.928 63.0094H67.4905L69.9996 56.9459H71.5536L74.0527 63.0094H72.6151L72.1426 61.7752ZM71.7766 60.8465L70.7782 58.2581L69.7799 60.8465H71.7766Z"/><path d="M81.5234 63.0094H80.1624L77.1109 58.8392V63.0094H75.7532V56.877H77.1109L80.1624 61.0711V56.877H81.5234V63.0094Z"/><path d="M89.2903 61.5415C89.0089 62.0045 88.5801 62.3811 88.059 62.6229C87.4666 62.8923 86.8091 63.0251 86.1456 63.0094H83.723V56.877H86.1456C86.8079 56.8614 87.4646 56.991 88.059 57.2545C88.58 57.4908 89.0092 57.8637 89.2903 58.324C89.5704 58.8227 89.7164 59.3738 89.7164 59.9327C89.7164 60.4916 89.5704 61.0427 89.2903 61.5415ZM87.7329 61.3947C88.1213 60.9873 88.3349 60.4681 88.3349 59.9312C88.3349 59.3943 88.1213 58.8752 87.7329 58.4678C87.2634 58.0988 86.6511 57.9114 86.0291 57.9465H85.0841V61.9159H86.0291C86.6511 61.951 87.2634 61.7637 87.7329 61.3947Z"/><path d="M72.9945 22.7667C72.9945 22.7667 90.5614 28.7374 90.1887 37.3773V51.9908C90.1887 51.9908 72.6351 46.0172 73.0012 37.3773L72.9945 22.7667Z"/><path d="M105.839 48.5694C109.157 46.5139 112.994 45.2408 117 44.8666V40.292C112.384 41.8935 108.469 44.7975 105.839 48.5694Z"/><path d="M103.846 49.9478C106.561 45.0253 111.269 41.2268 117 39.3336V26.1521C117 26.1521 91.9823 34.6572 92.5114 46.9609V67.7668C92.5114 67.7668 93.6262 67.3863 95.3799 66.6733C95.3799 66.0083 95.3799 65.3372 95.4598 64.6631C95.9776 58.9511 98.9939 53.6581 103.846 49.9478Z"/><path d="M101.466 57.6769C101.598 56.234 101.891 54.8067 102.342 53.4169C99.3205 56.6211 97.491 60.5971 97.1104 64.7859C97.0738 65.1814 97.0538 65.5768 97.0438 65.9843C98.4648 65.3701 100.119 64.6032 101.856 63.7015C101.412 61.7197 101.281 59.6916 101.466 57.6769Z"/><path d="M102.461 57.7519C102.295 59.5746 102.399 61.4092 102.771 63.2072C109.606 59.5254 117.286 53.8363 116.99 46.961V46.3618C112.107 46.8537 107.538 48.7756 103.985 51.8321C103.154 53.7263 102.64 55.7214 102.461 57.7519Z"/></symbol><symbol id="client6" width="168" height="88" viewBox="0 0 168 88" ><rect x="0.5" y="0.5" width="167" height="87" rx="3.5"/><path d="M85.5293 43.4433C85.0853 42.8524 84.8729 42.1542 84.9233 41.4513V38.5632C84.9233 37.6779 85.1242 37.0051 85.5259 36.5448C85.9277 36.0845 86.6177 35.8554 87.596 35.8573C88.5153 35.8573 89.1679 36.0532 89.5537 36.4449C89.9746 36.9447 90.1794 37.556 90.1325 38.1725V38.8512H88.488V38.1637C88.4939 37.9386 88.4779 37.7136 88.4404 37.4909C88.4167 37.3386 88.3339 37.1977 88.2055 37.0913C88.0366 36.9766 87.8239 36.921 87.6096 36.9356C87.3843 36.9211 87.1609 36.9797 86.9832 37.1001C86.8399 37.218 86.7444 37.3725 86.7108 37.5408C86.6636 37.7765 86.642 38.0155 86.6461 38.2547V41.7598C86.6202 42.0979 86.6927 42.4363 86.8572 42.744C86.939 42.8482 87.0526 42.9307 87.1854 42.9826C87.3182 43.0344 87.465 43.0536 87.6096 43.0378C87.8203 43.0528 88.0293 42.9958 88.1918 42.8792C88.3258 42.7644 88.412 42.6147 88.437 42.4532C88.4754 42.2206 88.4925 41.9858 88.488 41.751V41.04H90.1325V41.6893C90.1787 42.3319 89.9789 42.9699 89.5639 43.505C89.186 43.9339 88.5425 44.1484 87.596 44.1484C86.6495 44.1484 85.9345 43.9193 85.5293 43.4433Z"/><path d="M92.3763 43.4727C91.961 43.0232 91.7533 42.368 91.7533 41.5013V38.4633C91.7533 37.6054 91.961 36.9561 92.3763 36.5154C92.7917 36.0747 93.4863 35.8554 94.46 35.8573C95.4269 35.8573 96.1181 36.0767 96.5334 36.5154C96.9488 36.9561 97.1599 37.6054 97.1599 38.4633V41.5013C97.1599 42.3592 96.9488 43.0173 96.5266 43.4697C96.1044 43.9222 95.4167 44.1484 94.46 44.1484C93.5033 44.1484 92.7951 43.9193 92.3763 43.4727ZM95.226 42.744C95.3748 42.4625 95.4425 42.154 95.4235 41.845V38.1255C95.4426 37.8224 95.376 37.5199 95.2294 37.2441C95.146 37.1377 95.0296 37.0538 94.8936 37.0019C94.7575 36.9499 94.6073 36.932 94.46 36.9503C94.3123 36.9325 94.1617 36.9506 94.0252 37.0025C93.8887 37.0544 93.7717 37.138 93.6871 37.2441C93.5374 37.5191 93.4695 37.8221 93.4897 38.1255V41.8626C93.469 42.1718 93.5368 42.4805 93.6871 42.7617C93.783 42.8564 93.9013 42.9324 94.034 42.9845C94.1667 43.0365 94.3108 43.0634 94.4566 43.0634C94.6024 43.0634 94.7465 43.0365 94.8792 42.9845C95.0119 42.9324 95.1302 42.8564 95.226 42.7617V42.744Z"/><path d="M99.1378 35.946H100.908L102.239 41.5512L103.601 35.946H105.324L105.498 44.0365H104.224L104.088 38.4137L102.774 44.0365H101.753L100.391 38.3931L100.265 44.0365H98.9778L99.1378 35.946Z"/><path d="M107.483 35.946H110.241C111.829 35.946 112.624 36.7118 112.624 38.2433C112.624 39.7102 111.787 40.4427 110.115 40.4407H109.175V44.0365H107.473L107.483 35.946ZM109.839 39.4037C110.007 39.4221 110.178 39.4088 110.34 39.3647C110.501 39.3206 110.65 39.2467 110.775 39.1481C110.97 38.8749 111.056 38.554 111.02 38.2345C111.029 37.9877 111.002 37.7409 110.939 37.5001C110.914 37.4196 110.872 37.3442 110.813 37.2781C110.755 37.212 110.682 37.1567 110.598 37.1152C110.362 37.0174 110.101 36.973 109.839 36.986H109.178V39.4037H109.839Z"/><path d="M115.079 35.946H116.907L118.783 44.0365H117.196L116.825 42.171H115.194L114.813 44.0365H113.203L115.079 35.946ZM116.641 41.2339L116.005 37.8379L115.368 41.2339H116.641Z"/><path d="M120.298 35.946H121.49L123.771 40.5612V35.946H125.184V44.0365H124.05L121.755 39.2186V44.0365H120.295L120.298 35.946Z"/><path d="M128.493 40.9516L126.597 35.9573H128.194L129.351 39.1654L130.437 35.9573H132L130.127 40.9516V44.0363H128.493V40.9516Z"/><path d="M88.1579 47.5736V47.9967H86.7688V51.2842H86.1866V47.9967H84.7906V47.5736H88.1579Z"/><path d="M92.5123 51.2844H92.0629C92.0173 51.2869 91.9722 51.2743 91.9369 51.2492C91.9029 51.2277 91.8769 51.1981 91.862 51.164L91.4603 50.2827H89.5332L89.1314 51.164C89.12 51.2009 89.0991 51.235 89.0702 51.2639C89.0345 51.2885 88.9897 51.301 88.9442 51.2991H88.4948L90.1971 47.5887H90.7895L92.5123 51.2844ZM89.6932 49.9066H91.3003L90.6193 48.3966C90.5691 48.2824 90.527 48.1657 90.4933 48.047C90.4695 48.1175 90.4491 48.1851 90.4286 48.2439L90.3674 48.3996L89.6932 49.9066Z"/><path d="M95.4472 50.9202C95.5538 50.925 95.6606 50.925 95.7672 50.9202C95.8593 50.912 95.9504 50.8972 96.0396 50.8761C96.123 50.8584 96.2049 50.8359 96.2848 50.8085C96.3597 50.7821 96.4346 50.7498 96.5129 50.7174V49.883H95.8319C95.8151 49.8838 95.7982 49.8816 95.7824 49.8766C95.7666 49.8715 95.7522 49.8637 95.74 49.8536C95.7288 49.8453 95.72 49.8349 95.7141 49.8232C95.7082 49.8115 95.7054 49.7988 95.706 49.786V49.501H97.027V50.9231C96.9192 50.9897 96.8053 51.0486 96.6865 51.0994C96.5651 51.1511 96.4386 51.1934 96.3086 51.2257C96.1694 51.2611 96.027 51.2866 95.883 51.3021C95.7179 51.3179 95.552 51.3258 95.3859 51.3256C95.0923 51.3278 94.8009 51.2809 94.5279 51.1875C94.273 51.0991 94.0414 50.9672 93.847 50.7997C93.6574 50.6305 93.5082 50.4309 93.4078 50.2121C93.3005 49.9661 93.2474 49.705 93.2512 49.4423C93.2476 49.1778 93.2995 48.9151 93.4044 48.6666C93.5023 48.4467 93.6518 48.2466 93.8436 48.079C94.0379 47.912 94.2696 47.7811 94.5245 47.6941C94.8161 47.5994 95.1255 47.5526 95.437 47.556C95.5955 47.5558 95.7537 47.5666 95.9102 47.5883C96.0486 47.6077 96.1844 47.6392 96.3154 47.6823C96.4345 47.7209 96.5486 47.7701 96.6559 47.8292C96.7602 47.8872 96.8593 47.952 96.9521 48.0231L96.7887 48.2523C96.7759 48.2732 96.7568 48.2908 96.7334 48.3032C96.7101 48.3156 96.6833 48.3224 96.6559 48.3228C96.6182 48.3218 96.5816 48.3116 96.5503 48.2934C96.4993 48.2699 96.4448 48.2406 96.3835 48.2053C96.3111 48.1661 96.2348 48.1327 96.1554 48.1054C96.0539 48.0703 95.9491 48.0427 95.8421 48.0231C95.6995 48.0005 95.5547 47.9896 95.4097 47.9908C95.1851 47.9887 94.9621 48.0236 94.7526 48.0936C94.5632 48.1592 94.3924 48.2595 94.2522 48.3875C94.1111 48.5209 94.0033 48.6779 93.9355 48.8488C93.7834 49.2506 93.7834 49.6838 93.9355 50.0857C94.01 50.2602 94.126 50.4194 94.276 50.5529C94.4156 50.6802 94.5851 50.7804 94.7731 50.8467C94.9896 50.9108 95.219 50.9359 95.4472 50.9202Z"/><path d="M100.874 50.8611H102.733V51.2842H100.306V47.5736H100.888L100.874 50.8611Z"/><path d="M104.667 51.2842H104.085V47.5736H104.667V51.2842Z"/><path d="M106.833 47.5913C106.867 47.6083 106.897 47.6313 106.921 47.6589L109.41 50.4559C109.406 50.4119 109.406 50.3677 109.41 50.3237C109.41 50.2826 109.41 50.2414 109.41 50.2032V47.559H109.917V51.2845H109.624C109.581 51.2875 109.537 51.2804 109.498 51.2639C109.463 51.2454 109.432 51.2215 109.406 51.1934L106.921 48.3993C106.921 48.4433 106.921 48.4845 106.921 48.5256C106.921 48.5667 106.921 48.6049 106.921 48.6402V51.2845H106.434V47.5737H106.737C106.77 47.5737 106.803 47.5797 106.833 47.5913Z"/><path d="M114.204 47.5736V47.982H112.14V49.2071H113.812V49.6008H112.14V50.8671H114.204V51.2754H111.541V47.5736H114.204Z"/><path d="M53.1952 24.6587L79.047 30.9927V53.1883L53.1952 46.8572V24.6587ZM51.5371 22.7667V47.9354L80.7017 55.0832V29.9175L51.5371 22.7667Z"/><path d="M67.168 66.7667L38 59.6129V34.4469L67.168 41.5977V66.7667Z"/><path d="M52.0205 24.3737L77.5352 30.6283L66.6845 39.9941L41.1664 33.7365L52.0205 24.3737ZM51.537 22.7667L38 34.4475L67.168 41.5981L80.7016 29.9174L51.537 22.7667Z"/><path d="M68.8091 65.3509L80.7016 55.0863L68.8091 52.1691V65.3509Z"/></symbol></svg>
